<mxfile host="Electron" agent="Mozilla/5.0 (X11; Linux x86_64) AppleWebKit/537.36 (KHTML, like Gecko) draw.io/26.0.4 Chrome/128.0.6613.186 Electron/32.2.5 Safari/537.36" version="26.0.4">
  <diagram name="Page-1" id="wvVzASNzNJ1Oc9zNXCeU">
    <mxGraphModel dx="1434" dy="839" grid="1" gridSize="10" guides="1" tooltips="1" connect="1" arrows="1" fold="1" page="1" pageScale="1" pageWidth="1654" pageHeight="1169" math="0" shadow="0">
      <root>
        <mxCell id="0" />
        <mxCell id="1" parent="0" />
        <mxCell id="Q_fTV9f1p3Rm7Qn1-__X-6" value="&lt;div&gt;project1&lt;br&gt;&lt;/div&gt;docker compose" style="rounded=0;whiteSpace=wrap;html=1;fillColor=default;verticalAlign=bottom;align=left;" parent="1" vertex="1">
          <mxGeometry x="670" y="510" width="210" height="340" as="geometry" />
        </mxCell>
        <mxCell id="Q_fTV9f1p3Rm7Qn1-__X-29" style="edgeStyle=orthogonalEdgeStyle;rounded=0;orthogonalLoop=1;jettySize=auto;html=1;exitX=0;exitY=0.75;exitDx=0;exitDy=0;entryX=0;entryY=0.25;entryDx=0;entryDy=0;" parent="1" source="Q_fTV9f1p3Rm7Qn1-__X-1" target="Q_fTV9f1p3Rm7Qn1-__X-2" edge="1">
          <mxGeometry relative="1" as="geometry">
            <Array as="points">
              <mxPoint x="710" y="553" />
              <mxPoint x="710" y="588" />
            </Array>
          </mxGeometry>
        </mxCell>
        <mxCell id="Q_fTV9f1p3Rm7Qn1-__X-31" style="edgeStyle=orthogonalEdgeStyle;rounded=0;orthogonalLoop=1;jettySize=auto;html=1;exitX=0;exitY=0.5;exitDx=0;exitDy=0;entryX=0;entryY=0.5;entryDx=0;entryDy=0;" parent="1" source="Q_fTV9f1p3Rm7Qn1-__X-1" target="Q_fTV9f1p3Rm7Qn1-__X-3" edge="1">
          <mxGeometry relative="1" as="geometry">
            <Array as="points">
              <mxPoint x="700" y="545" />
              <mxPoint x="700" y="695" />
            </Array>
          </mxGeometry>
        </mxCell>
        <mxCell id="Q_fTV9f1p3Rm7Qn1-__X-1" value="nextcloud" style="rounded=0;whiteSpace=wrap;html=1;" parent="1" vertex="1">
          <mxGeometry x="730" y="530" width="120" height="30" as="geometry" />
        </mxCell>
        <mxCell id="Q_fTV9f1p3Rm7Qn1-__X-2" value="cache" style="rounded=0;whiteSpace=wrap;html=1;" parent="1" vertex="1">
          <mxGeometry x="730" y="580" width="120" height="30" as="geometry" />
        </mxCell>
        <mxCell id="Q_fTV9f1p3Rm7Qn1-__X-3" value="db" style="rounded=0;whiteSpace=wrap;html=1;" parent="1" vertex="1">
          <mxGeometry x="730" y="680" width="120" height="30" as="geometry" />
        </mxCell>
        <mxCell id="Q_fTV9f1p3Rm7Qn1-__X-21" style="edgeStyle=orthogonalEdgeStyle;rounded=0;orthogonalLoop=1;jettySize=auto;html=1;exitX=0;exitY=0.75;exitDx=0;exitDy=0;entryX=0;entryY=0.25;entryDx=0;entryDy=0;" parent="1" source="Q_fTV9f1p3Rm7Qn1-__X-4" target="Q_fTV9f1p3Rm7Qn1-__X-3" edge="1">
          <mxGeometry relative="1" as="geometry">
            <Array as="points">
              <mxPoint x="710" y="652" />
              <mxPoint x="710" y="687" />
            </Array>
          </mxGeometry>
        </mxCell>
        <mxCell id="Q_fTV9f1p3Rm7Qn1-__X-32" style="edgeStyle=orthogonalEdgeStyle;rounded=0;orthogonalLoop=1;jettySize=auto;html=1;exitX=0;exitY=0.25;exitDx=0;exitDy=0;entryX=0;entryY=0.75;entryDx=0;entryDy=0;" parent="1" source="Q_fTV9f1p3Rm7Qn1-__X-4" target="Q_fTV9f1p3Rm7Qn1-__X-2" edge="1">
          <mxGeometry relative="1" as="geometry">
            <Array as="points">
              <mxPoint x="710" y="638" />
              <mxPoint x="710" y="603" />
            </Array>
          </mxGeometry>
        </mxCell>
        <mxCell id="Q_fTV9f1p3Rm7Qn1-__X-4" value="cron" style="rounded=0;whiteSpace=wrap;html=1;" parent="1" vertex="1">
          <mxGeometry x="730" y="630" width="120" height="30" as="geometry" />
        </mxCell>
        <mxCell id="Q_fTV9f1p3Rm7Qn1-__X-30" style="edgeStyle=orthogonalEdgeStyle;rounded=0;orthogonalLoop=1;jettySize=auto;html=1;exitX=1;exitY=0.25;exitDx=0;exitDy=0;entryX=1;entryY=0.75;entryDx=0;entryDy=0;" parent="1" source="Q_fTV9f1p3Rm7Qn1-__X-5" target="Q_fTV9f1p3Rm7Qn1-__X-1" edge="1">
          <mxGeometry relative="1" as="geometry" />
        </mxCell>
        <mxCell id="Q_fTV9f1p3Rm7Qn1-__X-5" value="push" style="rounded=0;whiteSpace=wrap;html=1;" parent="1" vertex="1">
          <mxGeometry x="730" y="740" width="120" height="30" as="geometry" />
        </mxCell>
        <mxCell id="Q_fTV9f1p3Rm7Qn1-__X-44" value="adminer" style="rounded=0;whiteSpace=wrap;html=1;" parent="1" vertex="1">
          <mxGeometry x="1160" y="510" width="120" height="200" as="geometry" />
        </mxCell>
        <mxCell id="Q_fTV9f1p3Rm7Qn1-__X-33" value="&lt;div&gt;project2&lt;br&gt;&lt;/div&gt;docker compose" style="rounded=0;whiteSpace=wrap;html=1;fillColor=default;verticalAlign=bottom;gradientColor=none;align=left;" parent="1" vertex="1">
          <mxGeometry x="910" y="510" width="210" height="340" as="geometry" />
        </mxCell>
        <mxCell id="Q_fTV9f1p3Rm7Qn1-__X-34" style="edgeStyle=orthogonalEdgeStyle;rounded=0;orthogonalLoop=1;jettySize=auto;html=1;exitX=0;exitY=0.75;exitDx=0;exitDy=0;entryX=0;entryY=0.25;entryDx=0;entryDy=0;" parent="1" source="Q_fTV9f1p3Rm7Qn1-__X-36" target="Q_fTV9f1p3Rm7Qn1-__X-37" edge="1">
          <mxGeometry relative="1" as="geometry">
            <Array as="points">
              <mxPoint x="950" y="553" />
              <mxPoint x="950" y="588" />
            </Array>
          </mxGeometry>
        </mxCell>
        <mxCell id="Q_fTV9f1p3Rm7Qn1-__X-35" style="edgeStyle=orthogonalEdgeStyle;rounded=0;orthogonalLoop=1;jettySize=auto;html=1;exitX=0;exitY=0.5;exitDx=0;exitDy=0;entryX=0;entryY=0.5;entryDx=0;entryDy=0;" parent="1" source="Q_fTV9f1p3Rm7Qn1-__X-36" target="Q_fTV9f1p3Rm7Qn1-__X-38" edge="1">
          <mxGeometry relative="1" as="geometry">
            <Array as="points">
              <mxPoint x="940" y="545" />
              <mxPoint x="940" y="695" />
            </Array>
          </mxGeometry>
        </mxCell>
        <mxCell id="Q_fTV9f1p3Rm7Qn1-__X-36" value="nextcloud" style="rounded=0;whiteSpace=wrap;html=1;" parent="1" vertex="1">
          <mxGeometry x="970" y="530" width="120" height="30" as="geometry" />
        </mxCell>
        <mxCell id="Q_fTV9f1p3Rm7Qn1-__X-37" value="cache" style="rounded=0;whiteSpace=wrap;html=1;" parent="1" vertex="1">
          <mxGeometry x="970" y="580" width="120" height="30" as="geometry" />
        </mxCell>
        <mxCell id="Q_fTV9f1p3Rm7Qn1-__X-38" value="db" style="rounded=0;whiteSpace=wrap;html=1;" parent="1" vertex="1">
          <mxGeometry x="970" y="680" width="120" height="30" as="geometry" />
        </mxCell>
        <mxCell id="Q_fTV9f1p3Rm7Qn1-__X-39" style="edgeStyle=orthogonalEdgeStyle;rounded=0;orthogonalLoop=1;jettySize=auto;html=1;exitX=0;exitY=0.75;exitDx=0;exitDy=0;entryX=0;entryY=0.25;entryDx=0;entryDy=0;" parent="1" source="Q_fTV9f1p3Rm7Qn1-__X-41" target="Q_fTV9f1p3Rm7Qn1-__X-38" edge="1">
          <mxGeometry relative="1" as="geometry">
            <Array as="points">
              <mxPoint x="950" y="652" />
              <mxPoint x="950" y="687" />
            </Array>
          </mxGeometry>
        </mxCell>
        <mxCell id="Q_fTV9f1p3Rm7Qn1-__X-40" style="edgeStyle=orthogonalEdgeStyle;rounded=0;orthogonalLoop=1;jettySize=auto;html=1;exitX=0;exitY=0.25;exitDx=0;exitDy=0;entryX=0;entryY=0.75;entryDx=0;entryDy=0;" parent="1" source="Q_fTV9f1p3Rm7Qn1-__X-41" target="Q_fTV9f1p3Rm7Qn1-__X-37" edge="1">
          <mxGeometry relative="1" as="geometry">
            <Array as="points">
              <mxPoint x="950" y="638" />
              <mxPoint x="950" y="603" />
            </Array>
          </mxGeometry>
        </mxCell>
        <mxCell id="Q_fTV9f1p3Rm7Qn1-__X-41" value="cron" style="rounded=0;whiteSpace=wrap;html=1;" parent="1" vertex="1">
          <mxGeometry x="970" y="630" width="120" height="30" as="geometry" />
        </mxCell>
        <mxCell id="Q_fTV9f1p3Rm7Qn1-__X-42" style="edgeStyle=orthogonalEdgeStyle;rounded=0;orthogonalLoop=1;jettySize=auto;html=1;exitX=1;exitY=0.25;exitDx=0;exitDy=0;entryX=1;entryY=0.75;entryDx=0;entryDy=0;" parent="1" source="Q_fTV9f1p3Rm7Qn1-__X-43" target="Q_fTV9f1p3Rm7Qn1-__X-36" edge="1">
          <mxGeometry relative="1" as="geometry" />
        </mxCell>
        <mxCell id="Q_fTV9f1p3Rm7Qn1-__X-43" value="push" style="rounded=0;whiteSpace=wrap;html=1;" parent="1" vertex="1">
          <mxGeometry x="970" y="740" width="120" height="30" as="geometry" />
        </mxCell>
        <mxCell id="Q_fTV9f1p3Rm7Qn1-__X-51" style="edgeStyle=orthogonalEdgeStyle;rounded=0;orthogonalLoop=1;jettySize=auto;html=1;entryX=1;entryY=0.5;entryDx=0;entryDy=0;" parent="1" source="Q_fTV9f1p3Rm7Qn1-__X-13" target="Q_fTV9f1p3Rm7Qn1-__X-46" edge="1">
          <mxGeometry relative="1" as="geometry" />
        </mxCell>
        <mxCell id="Q_fTV9f1p3Rm7Qn1-__X-55" style="edgeStyle=orthogonalEdgeStyle;rounded=0;orthogonalLoop=1;jettySize=auto;html=1;exitX=1;exitY=0.25;exitDx=0;exitDy=0;entryX=0.5;entryY=0;entryDx=0;entryDy=0;" parent="1" source="Q_fTV9f1p3Rm7Qn1-__X-13" target="Q_fTV9f1p3Rm7Qn1-__X-44" edge="1">
          <mxGeometry relative="1" as="geometry" />
        </mxCell>
        <mxCell id="Q_fTV9f1p3Rm7Qn1-__X-56" style="edgeStyle=orthogonalEdgeStyle;rounded=0;orthogonalLoop=1;jettySize=auto;html=1;entryX=1;entryY=0.5;entryDx=0;entryDy=0;" parent="1" source="Q_fTV9f1p3Rm7Qn1-__X-13" target="Q_fTV9f1p3Rm7Qn1-__X-48" edge="1">
          <mxGeometry relative="1" as="geometry" />
        </mxCell>
        <mxCell id="Q_fTV9f1p3Rm7Qn1-__X-57" style="edgeStyle=orthogonalEdgeStyle;rounded=0;orthogonalLoop=1;jettySize=auto;html=1;entryX=1;entryY=0.5;entryDx=0;entryDy=0;" parent="1" source="Q_fTV9f1p3Rm7Qn1-__X-13" target="Q_fTV9f1p3Rm7Qn1-__X-45" edge="1">
          <mxGeometry relative="1" as="geometry" />
        </mxCell>
        <mxCell id="Q_fTV9f1p3Rm7Qn1-__X-58" style="edgeStyle=orthogonalEdgeStyle;rounded=0;orthogonalLoop=1;jettySize=auto;html=1;entryX=1;entryY=0.5;entryDx=0;entryDy=0;" parent="1" source="Q_fTV9f1p3Rm7Qn1-__X-13" target="Q_fTV9f1p3Rm7Qn1-__X-14" edge="1">
          <mxGeometry relative="1" as="geometry" />
        </mxCell>
        <mxCell id="Q_fTV9f1p3Rm7Qn1-__X-63" style="edgeStyle=orthogonalEdgeStyle;rounded=0;orthogonalLoop=1;jettySize=auto;html=1;exitX=1;exitY=0.75;exitDx=0;exitDy=0;entryX=0.5;entryY=1;entryDx=0;entryDy=0;" parent="1" source="Q_fTV9f1p3Rm7Qn1-__X-13" target="Q_fTV9f1p3Rm7Qn1-__X-5" edge="1">
          <mxGeometry relative="1" as="geometry">
            <Array as="points">
              <mxPoint x="640" y="705" />
              <mxPoint x="640" y="800" />
              <mxPoint x="790" y="800" />
            </Array>
          </mxGeometry>
        </mxCell>
        <mxCell id="Q_fTV9f1p3Rm7Qn1-__X-64" style="edgeStyle=orthogonalEdgeStyle;rounded=0;orthogonalLoop=1;jettySize=auto;html=1;exitX=1;exitY=0.75;exitDx=0;exitDy=0;entryX=0.5;entryY=1;entryDx=0;entryDy=0;" parent="1" source="Q_fTV9f1p3Rm7Qn1-__X-13" target="Q_fTV9f1p3Rm7Qn1-__X-43" edge="1">
          <mxGeometry relative="1" as="geometry">
            <Array as="points">
              <mxPoint x="640" y="705" />
              <mxPoint x="640" y="800" />
              <mxPoint x="1030" y="800" />
            </Array>
          </mxGeometry>
        </mxCell>
        <mxCell id="Q_fTV9f1p3Rm7Qn1-__X-84" value="TCP 7867" style="edgeLabel;html=1;align=center;verticalAlign=middle;resizable=0;points=[];" parent="Q_fTV9f1p3Rm7Qn1-__X-64" vertex="1" connectable="0">
          <mxGeometry x="-0.349" y="-1" relative="1" as="geometry">
            <mxPoint x="10" as="offset" />
          </mxGeometry>
        </mxCell>
        <mxCell id="Q_fTV9f1p3Rm7Qn1-__X-65" style="edgeStyle=orthogonalEdgeStyle;rounded=0;orthogonalLoop=1;jettySize=auto;html=1;exitX=1;exitY=0.25;exitDx=0;exitDy=0;entryX=0.5;entryY=0;entryDx=0;entryDy=0;" parent="1" source="Q_fTV9f1p3Rm7Qn1-__X-13" target="Q_fTV9f1p3Rm7Qn1-__X-1" edge="1">
          <mxGeometry relative="1" as="geometry">
            <Array as="points">
              <mxPoint x="790" y="475" />
            </Array>
          </mxGeometry>
        </mxCell>
        <mxCell id="Q_fTV9f1p3Rm7Qn1-__X-66" style="edgeStyle=orthogonalEdgeStyle;rounded=0;orthogonalLoop=1;jettySize=auto;html=1;exitX=1;exitY=0.25;exitDx=0;exitDy=0;entryX=0.5;entryY=0;entryDx=0;entryDy=0;" parent="1" source="Q_fTV9f1p3Rm7Qn1-__X-13" target="Q_fTV9f1p3Rm7Qn1-__X-36" edge="1">
          <mxGeometry relative="1" as="geometry">
            <Array as="points">
              <mxPoint x="1030" y="475" />
            </Array>
          </mxGeometry>
        </mxCell>
        <mxCell id="Q_fTV9f1p3Rm7Qn1-__X-85" value="TCP 80" style="edgeLabel;html=1;align=center;verticalAlign=middle;resizable=0;points=[];" parent="Q_fTV9f1p3Rm7Qn1-__X-66" vertex="1" connectable="0">
          <mxGeometry x="-0.7421" y="-1" relative="1" as="geometry">
            <mxPoint as="offset" />
          </mxGeometry>
        </mxCell>
        <mxCell id="Q_fTV9f1p3Rm7Qn1-__X-13" value="reverseproxy" style="rounded=0;whiteSpace=wrap;html=1;" parent="1" vertex="1">
          <mxGeometry x="500" y="360" width="120" height="460" as="geometry" />
        </mxCell>
        <mxCell id="Q_fTV9f1p3Rm7Qn1-__X-24" value="network:&amp;nbsp;&lt;br&gt;databases" style="rounded=0;whiteSpace=wrap;html=1;fillColor=none;verticalAlign=middle;dashed=1;dashPattern=8 8;strokeColor=#666666;align=right;fontStyle=1" parent="1" vertex="1">
          <mxGeometry x="660" y="670" width="730" height="50" as="geometry" />
        </mxCell>
        <mxCell id="Q_fTV9f1p3Rm7Qn1-__X-14" value="collabora" style="rounded=0;whiteSpace=wrap;html=1;" parent="1" vertex="1">
          <mxGeometry x="340" y="400" width="120" height="30" as="geometry" />
        </mxCell>
        <mxCell id="Q_fTV9f1p3Rm7Qn1-__X-45" value="keycloak" style="rounded=0;whiteSpace=wrap;html=1;" parent="1" vertex="1">
          <mxGeometry x="340" y="440" width="120" height="30" as="geometry" />
        </mxCell>
        <mxCell id="Q_fTV9f1p3Rm7Qn1-__X-46" value="etc." style="rounded=0;whiteSpace=wrap;html=1;" parent="1" vertex="1">
          <mxGeometry x="340" y="520" width="120" height="30" as="geometry" />
        </mxCell>
        <mxCell id="Q_fTV9f1p3Rm7Qn1-__X-47" value="stalwart-mail" style="rounded=0;whiteSpace=wrap;html=1;" parent="1" vertex="1">
          <mxGeometry x="200" y="360" width="120" height="110" as="geometry" />
        </mxCell>
        <mxCell id="Q_fTV9f1p3Rm7Qn1-__X-50" style="edgeStyle=orthogonalEdgeStyle;rounded=0;orthogonalLoop=1;jettySize=auto;html=1;entryX=1;entryY=0.75;entryDx=0;entryDy=0;" parent="1" source="Q_fTV9f1p3Rm7Qn1-__X-48" target="Q_fTV9f1p3Rm7Qn1-__X-49" edge="1">
          <mxGeometry relative="1" as="geometry" />
        </mxCell>
        <mxCell id="Q_fTV9f1p3Rm7Qn1-__X-82" value="TCP 8188" style="edgeLabel;html=1;align=center;verticalAlign=middle;resizable=0;points=[];" parent="Q_fTV9f1p3Rm7Qn1-__X-50" vertex="1" connectable="0">
          <mxGeometry x="0.6853" y="3" relative="1" as="geometry">
            <mxPoint x="25" y="-3" as="offset" />
          </mxGeometry>
        </mxCell>
        <mxCell id="Q_fTV9f1p3Rm7Qn1-__X-48" value="talk signaling server" style="rounded=0;whiteSpace=wrap;html=1;" parent="1" vertex="1">
          <mxGeometry x="340" y="480" width="120" height="30" as="geometry" />
        </mxCell>
        <mxCell id="Q_fTV9f1p3Rm7Qn1-__X-49" value="janus (talk webrtc)" style="rounded=0;whiteSpace=wrap;html=1;" parent="1" vertex="1">
          <mxGeometry x="60" y="360" width="120" height="180" as="geometry" />
        </mxCell>
        <mxCell id="Q_fTV9f1p3Rm7Qn1-__X-68" value="172.19.0.2" style="text;html=1;align=center;verticalAlign=middle;resizable=0;points=[];autosize=1;strokeColor=none;fillColor=none;" parent="1" vertex="1">
          <mxGeometry x="220" y="360" width="80" height="30" as="geometry" />
        </mxCell>
        <mxCell id="Q_fTV9f1p3Rm7Qn1-__X-69" value="172.19.0.3" style="text;html=1;align=center;verticalAlign=middle;resizable=0;points=[];autosize=1;strokeColor=none;fillColor=none;" parent="1" vertex="1">
          <mxGeometry x="80" y="360" width="80" height="30" as="geometry" />
        </mxCell>
        <mxCell id="Q_fTV9f1p3Rm7Qn1-__X-72" style="edgeStyle=orthogonalEdgeStyle;rounded=0;orthogonalLoop=1;jettySize=auto;html=1;entryX=0.5;entryY=0;entryDx=0;entryDy=0;" parent="1" source="Q_fTV9f1p3Rm7Qn1-__X-70" target="Q_fTV9f1p3Rm7Qn1-__X-13" edge="1">
          <mxGeometry relative="1" as="geometry" />
        </mxCell>
        <mxCell id="Q_fTV9f1p3Rm7Qn1-__X-79" value="TCP 80, 443" style="edgeLabel;html=1;align=center;verticalAlign=middle;resizable=0;points=[];" parent="Q_fTV9f1p3Rm7Qn1-__X-72" vertex="1" connectable="0">
          <mxGeometry x="0.6014" y="3" relative="1" as="geometry">
            <mxPoint x="-3" y="-6" as="offset" />
          </mxGeometry>
        </mxCell>
        <mxCell id="Q_fTV9f1p3Rm7Qn1-__X-74" style="edgeStyle=orthogonalEdgeStyle;rounded=0;orthogonalLoop=1;jettySize=auto;html=1;entryX=0.5;entryY=0;entryDx=0;entryDy=0;exitX=0.5;exitY=1;exitDx=0;exitDy=0;" parent="1" source="Q_fTV9f1p3Rm7Qn1-__X-70" target="Q_fTV9f1p3Rm7Qn1-__X-47" edge="1">
          <mxGeometry relative="1" as="geometry">
            <mxPoint x="280" y="330" as="targetPoint" />
          </mxGeometry>
        </mxCell>
        <mxCell id="Q_fTV9f1p3Rm7Qn1-__X-80" value="TCP 25, 465, 993, 443" style="edgeLabel;html=1;align=center;verticalAlign=middle;resizable=0;points=[];" parent="Q_fTV9f1p3Rm7Qn1-__X-74" vertex="1" connectable="0">
          <mxGeometry x="0.8902" relative="1" as="geometry">
            <mxPoint y="-7" as="offset" />
          </mxGeometry>
        </mxCell>
        <mxCell id="Q_fTV9f1p3Rm7Qn1-__X-75" style="edgeStyle=orthogonalEdgeStyle;rounded=0;orthogonalLoop=1;jettySize=auto;html=1;exitX=0.5;exitY=1;exitDx=0;exitDy=0;entryX=0.5;entryY=0;entryDx=0;entryDy=0;" parent="1" source="Q_fTV9f1p3Rm7Qn1-__X-70" target="Q_fTV9f1p3Rm7Qn1-__X-49" edge="1">
          <mxGeometry relative="1" as="geometry" />
        </mxCell>
        <mxCell id="Q_fTV9f1p3Rm7Qn1-__X-83" value="UDP 20000-40000" style="edgeLabel;html=1;align=center;verticalAlign=middle;resizable=0;points=[];" parent="Q_fTV9f1p3Rm7Qn1-__X-75" vertex="1" connectable="0">
          <mxGeometry x="0.9208" y="-3" relative="1" as="geometry">
            <mxPoint x="3" y="-7" as="offset" />
          </mxGeometry>
        </mxCell>
        <mxCell id="Q_fTV9f1p3Rm7Qn1-__X-88" style="edgeStyle=orthogonalEdgeStyle;rounded=0;orthogonalLoop=1;jettySize=auto;html=1;exitX=1;exitY=0.5;exitDx=0;exitDy=0;entryX=0;entryY=0.5;entryDx=0;entryDy=0;endArrow=none;endFill=0;" parent="1" source="Q_fTV9f1p3Rm7Qn1-__X-70" target="Q_fTV9f1p3Rm7Qn1-__X-87" edge="1">
          <mxGeometry relative="1" as="geometry" />
        </mxCell>
        <mxCell id="Q_fTV9f1p3Rm7Qn1-__X-70" value="/etc/hosts" style="rounded=0;whiteSpace=wrap;html=1;" parent="1" vertex="1">
          <mxGeometry x="500" y="200" width="120" height="40" as="geometry" />
        </mxCell>
        <mxCell id="Q_fTV9f1p3Rm7Qn1-__X-71" value="172.19.0.1" style="text;html=1;align=center;verticalAlign=middle;resizable=0;points=[];autosize=1;strokeColor=none;fillColor=none;" parent="1" vertex="1">
          <mxGeometry x="520" y="360" width="80" height="30" as="geometry" />
        </mxCell>
        <mxCell id="Q_fTV9f1p3Rm7Qn1-__X-78" style="edgeStyle=orthogonalEdgeStyle;rounded=0;orthogonalLoop=1;jettySize=auto;html=1;entryX=0.5;entryY=0;entryDx=0;entryDy=0;" parent="1" source="Q_fTV9f1p3Rm7Qn1-__X-77" target="Q_fTV9f1p3Rm7Qn1-__X-70" edge="1">
          <mxGeometry relative="1" as="geometry" />
        </mxCell>
        <mxCell id="Q_fTV9f1p3Rm7Qn1-__X-77" value="host browser" style="image;aspect=fixed;html=1;points=[];align=center;fontSize=12;image=img/lib/azure2/general/Browser.svg;" parent="1" vertex="1">
          <mxGeometry x="310" y="100" width="65" height="52" as="geometry" />
        </mxCell>
        <mxCell id="Q_fTV9f1p3Rm7Qn1-__X-87" value="172.19.0.1 nc1.mydomain nc2.mydomain ncX.mydomain&lt;div&gt;172.19.0.1 collabora.mydomain keycloak.mydomain adminer.mydomain ...&lt;/div&gt;&lt;div&gt;&lt;br&gt;&lt;/div&gt;&lt;div&gt;172.19.0.2 mail.mydomain&lt;/div&gt;&lt;div&gt;&lt;br&gt;&lt;/div&gt;&lt;div&gt;172.19.0.3 janus.mydomain&lt;/div&gt;" style="rounded=0;whiteSpace=wrap;html=1;align=left;dashed=1;" parent="1" vertex="1">
          <mxGeometry x="680" y="140" width="430" height="160" as="geometry" />
        </mxCell>
        <mxCell id="Q_fTV9f1p3Rm7Qn1-__X-92" value="&lt;span style=&quot;font-weight: 700;&quot;&gt;network:&lt;/span&gt;&lt;br style=&quot;font-weight: 700;&quot;&gt;&lt;b&gt;apps&lt;/b&gt;&lt;br&gt;subnet: 172.19.0.0/16&lt;br&gt;&lt;div&gt;&lt;div&gt;&lt;div style=&quot;text-wrap: nowrap;&quot;&gt;&lt;span style=&quot;text-wrap: wrap;&quot;&gt;automatic IP range:&lt;/span&gt;&lt;span style=&quot;color: light-dark(rgb(0, 0, 0), rgb(255, 255, 255)); text-wrap: wrap; background-color: transparent;&quot;&gt;&amp;nbsp;172.19.1.0/24&lt;/span&gt;&lt;/div&gt;&lt;/div&gt;&lt;/div&gt;" style="rounded=0;whiteSpace=wrap;html=1;fillColor=none;strokeColor=none;align=center;" parent="1" vertex="1">
          <mxGeometry x="1190" y="390" width="190" height="60" as="geometry" />
        </mxCell>
        <mxCell id="Q_fTV9f1p3Rm7Qn1-__X-25" value="&lt;span style=&quot;font-weight: 700;&quot;&gt;network:&amp;nbsp;&lt;/span&gt;&lt;br style=&quot;font-weight: 700;&quot;&gt;&lt;span style=&quot;font-weight: 700;&quot;&gt;push&amp;nbsp; &amp;nbsp;&amp;nbsp;&lt;/span&gt;" style="rounded=0;whiteSpace=wrap;html=1;fillColor=none;verticalAlign=middle;dashed=1;dashPattern=8 8;strokeColor=#666666;align=right;" parent="1" vertex="1">
          <mxGeometry x="490" y="730" width="740" height="50" as="geometry" />
        </mxCell>
        <mxCell id="Q_fTV9f1p3Rm7Qn1-__X-26" value="" style="rounded=0;whiteSpace=wrap;html=1;fillColor=none;verticalAlign=middle;dashed=1;dashPattern=8 8;strokeColor=#666666;align=right;" parent="1" vertex="1">
          <mxGeometry x="40" y="380" width="1350" height="190" as="geometry" />
        </mxCell>
        <mxCell id="hFwRk2bmWrab8uy4cKLT-2" value="NB: every compose defines a network &quot;local&quot;, to allow all the compose services to communicate with each other.&lt;br&gt;For simplicity, this &quot;local&quot; network does not appear on this drawing.&lt;br&gt;Outside of compose, this network appears as &quot;projectName_local&quot;" style="text;html=1;align=center;verticalAlign=middle;resizable=0;points=[];autosize=1;strokeColor=none;fillColor=none;" vertex="1" parent="1">
          <mxGeometry x="550" y="860" width="620" height="60" as="geometry" />
        </mxCell>
      </root>
    </mxGraphModel>
  </diagram>
</mxfile>
